<svg xmlns="http://www.w3.org/2000/svg" viewBox="0 0 64 64" width="64" height="64">
  <defs>
    <linearGradient id="gradient" x1="0%" y1="0%" x2="100%" y2="100%">
      <stop offset="0%" stop-color="#2563eb" />
      <stop offset="100%" stop-color="#7c3aed" />
    </linearGradient>
  </defs>
  <rect width="64" height="64" rx="16" fill="url(#gradient)" />
  <path
    d="M18 20c5.5 0 9.6 1.6 14 3.8 4.4-2.2 8.5-3.8 14-3.8v24c-5.5 0-9.6 1.6-14 3.8-4.4-2.2-8.5-3.8-14-3.8z"
    fill="white"
    opacity="0.92"
  />
  <path
    d="M18 20c5.5 0 9.6 1.6 14 3.8v24c-4.4-2.2-8.5-3.8-14-3.8z"
    fill="#e0e7ff"
    opacity="0.85"
  />
  <path
    d="M32 23.8c4.4-2.2 8.5-3.8 14-3.8v24c-5.5 0-9.6 1.6-14 3.8z"
    fill="#f8fafc"
    opacity="0.9"
  />
  <path
    d="M24.5 28h5v13h-5zM34.5 28h5v13h-5z"
    fill="#312e81"
    opacity="0.9"
  />
  <path
    d="M32 18l4 6h-8z"
    fill="#c7d2fe"
    opacity="0.9"
  />
</svg>
